<svg width="314" height="47" viewBox="0 0 314 47" fill="none" xmlns="http://www.w3.org/2000/svg">
<path d="M2.03125 5.9375C6.23698 6.45833 12.487 6.51042 20.7812 6.09375C26.9271 7.55208 29.5573 10.3646 28.6719 14.5312C27.7865 18.6979 24.5312 21.4583 18.9062 22.8125L24.5312 32.0312C24.8438 32.5521 25.8854 32.8125 27.6562 32.8125L27.9688 33.5938H16.0938L16.5625 32.9688C18.6458 32.7604 19.8438 32.4479 20.1562 32.0312L15.9375 23.9062C14.8958 23.2812 14.8438 22.7604 15.7812 22.3438C22.3438 20.4688 25.1562 17.4219 24.2188 13.2031C23.2812 8.98438 19.4271 7.00521 12.6562 7.26562C11.4062 7.10938 10.7292 7.44792 10.625 8.28125V27.6562C10.8333 29.0104 12.1875 29.6354 14.6875 29.5312L15 30.1562H1.25L1.5625 29.5312C4.16667 29.7396 5.78125 29.1146 6.40625 27.6562V8.4375C6.09375 7.39583 4.84375 6.92708 2.65625 7.03125L2.03125 5.9375ZM31.6406 29.8438L31.4844 29.375C33.3594 29.1667 34.5573 28.6979 35.0781 27.9688L42.5781 8.4375C42.3698 7.39583 41.0677 7.08333 38.6719 7.5L38.5156 6.71875H52.1094L51.7969 7.34375C49.2969 7.03125 47.9948 7.5 47.8906 8.75L55.5469 32.8125C56.4844 33.0208 57.7865 33.1771 59.4531 33.2812L59.2969 33.9062C55.3385 34.0104 51.5365 34.0104 47.8906 33.9062L48.5156 33.2812C50.2865 33.3854 51.3281 33.125 51.6406 32.5L48.2031 21.4062C47.2656 21.1979 44.1927 21.3021 38.9844 21.7188L36.9531 28.125C37.6823 28.6458 38.9323 28.9062 40.7031 28.9062L40.8594 29.8438H31.6406ZM47.8906 20.4688L44.4531 8.90625C44.1406 8.80208 43.8281 9.01042 43.5156 9.53125L39.7656 19.6875C44.2448 20.1042 46.9531 20.3646 47.8906 20.4688ZM58.125 6.875L57.5 6.09375L67.6562 6.40625L85.625 27.9688L84.8438 12.1875C84.2188 11.1458 82.3958 10.6771 79.375 10.7812L78.4375 10.1562H91.25L90.7812 10.7812C88.0729 10.7812 86.7188 11.1979 86.7188 12.0312L87.9688 35.3125C87.6562 35.7292 87.2917 35.9375 86.875 35.9375L63.75 8.125L64.375 28.4375C64.7917 28.9583 66.1458 29.2708 68.4375 29.375L69.0625 29.8438H58.75L59.5312 29.375C60.9896 29.1667 61.8229 28.5938 62.0312 27.6562L62.5 7.8125C61.9792 7.08333 60.5208 6.77083 58.125 6.875ZM101.719 6.40625C112.552 5.98958 118.802 8.41146 120.469 13.6719C122.135 18.9323 121.276 22.9427 117.891 25.7031C114.505 28.4635 109.688 29.9479 103.438 30.1562H93.125L93.2812 29.6875C95.8854 29.2708 97.3958 28.6458 97.8125 27.8125L97.9688 8.28125C97.3438 7.65625 95.8333 7.1875 93.4375 6.875L93.125 6.40625H101.719ZM100 29.0625C111.562 29.375 117.396 25.7031 117.5 18.0469C117.604 10.3906 111.667 6.92708 99.6875 7.65625C99.375 7.76042 99.2188 8.17708 99.2188 8.90625V26.25C98.9062 28.0208 99.1667 28.9583 100 29.0625ZM137.344 5.46875C144.531 4.63542 149.922 5.57292 153.516 8.28125C157.109 10.9896 158.516 14.0885 157.734 17.5781C156.953 21.0677 155.026 24.1146 151.953 26.7188C148.88 29.3229 143.932 30.4948 137.109 30.2344C130.286 29.974 126.094 27.5521 124.531 22.9688C122.969 18.3854 123.62 14.4531 126.484 11.1719C129.349 7.89062 132.969 5.98958 137.344 5.46875ZM137.188 6.09375C130.521 7.44792 127.109 11.1458 126.953 17.1875C126.797 23.2292 130.208 27.0312 137.188 28.5938C144.167 30.1562 148.906 28.6979 151.406 24.2188C153.906 19.7396 153.984 15.5729 151.641 11.7188C149.297 7.86458 144.479 5.98958 137.188 6.09375ZM160.312 30L160.938 29.2188C162.917 29.3229 164.115 28.75 164.531 27.5L169.062 7.34375C168.958 6.40625 167.5 5.98958 164.688 6.09375L164.062 5.3125H178.906L178.594 5.9375C175.99 5.9375 174.792 6.35417 175 7.1875L186.094 27.6562L195.781 6.71875C195.156 6.09375 193.542 5.88542 190.938 6.09375L190.156 5.46875H203.906L203.281 6.09375C200.052 5.98958 198.438 6.30208 198.438 7.03125L201.406 28.4375C201.823 29.1667 202.917 29.4792 204.688 29.375L204.844 30H196.25V29.5312C198.542 29.4271 199.896 29.1146 200.312 28.5938L197.656 8.4375C197.448 7.5 197.135 7.23958 196.719 7.65625L185.781 32.5C185.26 33.0208 184.74 33.0208 184.219 32.5L170.469 8.59375L166.094 27.9688C166.51 28.9062 167.969 29.375 170.469 29.375L170.781 30H160.312ZM208.75 5.625C212.956 6.14583 217.227 6.19792 221.562 5.78125L221.406 6.71875C218.802 6.71875 217.448 7.13542 217.344 7.96875V27.3438C217.865 28.5938 219.167 29.1146 221.25 28.9062L221.719 29.8438H207.969L208.281 29.2188C210.781 29.1146 212.396 28.4896 213.125 27.3438V8.125C212.812 7.08333 211.562 6.61458 209.375 6.71875L208.75 5.625ZM257.188 2.96875L257.5 3.90625L253.438 7.8125L231.875 29.2188L249.062 28.4375C250.417 27.8125 251.615 26.0417 252.656 23.125L253.75 22.3438L251.562 34.0625L250.938 33.5938C250.938 30.8854 250.26 29.5833 248.906 29.6875L226.406 30.7812C225.99 30.4688 225.781 30.1042 225.781 29.6875L250 4.375L231.562 5.46875C229.479 6.51042 228.49 8.17708 228.594 10.4688H227.656L228.594 0.46875L229.375 0.625C229.271 3.22917 229.792 4.27083 230.938 3.75L254.219 3.125L257.188 2.96875ZM281.934 13.3984L281.055 12.6172C281.263 9.40104 280.371 7.86458 278.379 8.00781L268.105 8.14453L268.281 18.4766C268.607 19.1146 269.909 19.2773 272.188 18.9648L273.809 16.2305L274.668 16.4258C273.6 18.1185 273.066 20.7682 273.066 24.375L272.383 24.2188L271.992 20.7031C271.51 20.2734 270.15 20.332 267.91 20.8789V28.3594C267.91 29.4271 269.518 29.7331 272.734 29.2773C274.141 29.4206 274.967 28.3594 275.215 26.0938L276.074 25.6445L275.918 36.875L274.844 36.2891C274.948 32.7995 274.414 30.8984 273.242 30.5859L261.23 30.8789L261.387 30.2539C263.366 30.2539 264.421 29.7721 264.551 28.8086V8.61328C263.848 8.20964 262.428 7.89062 260.293 7.65625L259.844 7.05078L278.555 6.83594C279.974 6.9401 280.872 5.67057 281.25 3.02734L282.188 2.61719L281.934 13.3984ZM285 5.9375C289.206 6.45833 295.456 6.51042 303.75 6.09375C309.896 7.55208 312.526 10.3646 311.641 14.5312C310.755 18.6979 307.5 21.4583 301.875 22.8125L307.5 32.0312C307.812 32.5521 308.854 32.8125 310.625 32.8125L310.938 33.5938H299.062L299.531 32.9688C301.615 32.7604 302.812 32.4479 303.125 32.0312L298.906 23.9062C297.865 23.2812 297.812 22.7604 298.75 22.3438C305.312 20.4688 308.125 17.4219 307.188 13.2031C306.25 8.98438 302.396 7.00521 295.625 7.26562C294.375 7.10938 293.698 7.44792 293.594 8.28125V27.6562C293.802 29.0104 295.156 29.6354 297.656 29.5312L297.969 30.1562H284.219L284.531 29.5312C287.135 29.7396 288.75 29.1146 289.375 27.6562V8.4375C289.062 7.39583 287.812 6.92708 285.625 7.03125L285 5.9375Z" fill="white"/>
</svg>
